<svg width="58" height="64" viewBox="0 0 58 64" fill="none" xmlns="http://www.w3.org/2000/svg">
<g clip-path="url(#clip0_402_842)">
<path d="M29.0995 64C28.2415 64 27.4407 63.7668 26.6971 63.3586L19.0898 58.7517C17.9459 58.1102 18.5178 57.877 18.8611 57.7603C20.4054 57.2355 20.6914 57.1189 22.2929 56.1859C22.4645 56.0692 22.6933 56.1275 22.8648 56.2442L28.699 59.8014C28.9279 59.918 29.2139 59.918 29.3854 59.8014L52.2074 46.3307C52.4362 46.214 52.5506 45.9808 52.5506 45.6892V18.806C52.5506 18.5145 52.4362 18.2812 52.2074 18.1646L29.3854 4.75223C29.1567 4.63561 28.8706 4.63561 28.699 4.75223L5.87712 18.1646C5.64833 18.2812 5.53393 18.5728 5.53393 18.806V45.6892C5.53393 45.9224 5.64833 46.214 5.87712 46.3307L12.1117 50.0045C15.4864 51.7539 17.6027 49.7129 17.6027 47.6719V21.1386C17.6027 20.7888 17.8887 20.4389 18.289 20.4389H21.2062C21.5493 20.4389 21.8925 20.7305 21.8925 21.1386V47.6719C21.8925 52.2788 19.433 54.9613 15.1431 54.9613C13.8276 54.9613 12.7981 54.9613 9.88095 53.5034L3.87519 50.0045C2.38805 49.1297 1.47289 47.4969 1.47289 45.7475V18.8644C1.47289 17.115 2.38805 15.4822 3.87519 14.6074L26.6971 1.13672C28.1271 0.320313 30.0718 0.320313 31.5018 1.13672L54.3237 14.6074C55.8109 15.4822 56.726 17.115 56.726 18.8644V45.7475C56.726 47.4969 55.8109 49.1297 54.3237 50.0045L31.5018 63.4752C30.8154 63.7668 29.9574 64 29.0995 64Z" fill="#5FA04E"/>
<path d="M36.192 45.5142C26.1823 45.5142 24.1232 40.849 24.1232 36.8836C24.1232 36.5337 24.4092 36.1839 24.8096 36.1839H27.7839C28.127 36.1839 28.4131 36.4171 28.4131 36.767C28.8706 39.8576 30.1862 41.3738 36.2492 41.3738C41.0538 41.3738 43.1129 40.2658 43.1129 37.6417C43.1129 36.1255 42.5409 35.0175 35.048 34.2594C28.8134 33.6179 24.924 32.2184 24.924 27.145C24.924 22.4215 28.8134 19.6224 35.334 19.6224C42.6553 19.6224 46.2588 22.1883 46.7164 27.7865C46.7164 27.9615 46.6592 28.1364 46.5448 28.3114C46.4304 28.4279 46.2588 28.5446 46.0872 28.5446H43.0557C42.7697 28.5446 42.4837 28.3114 42.4265 28.0197C41.7401 24.8124 39.967 23.7627 35.2768 23.7627C30.0146 23.7627 29.3854 25.6289 29.3854 27.0284C29.3854 28.7195 30.129 29.2444 37.2215 30.1774C44.2569 31.1104 47.5743 32.4517 47.5743 37.4668C47.5743 42.5984 43.3989 45.5142 36.192 45.5142Z" fill="#5FA04E"/>
</g>
<defs>
<clipPath id="clip0_402_842">
<rect width="56.32" height="64" fill="white" transform="translate(0.839996)"/>
</clipPath>
</defs>
</svg>
