<svg width="105" height="64" viewBox="0 0 105 64" fill="none" xmlns="http://www.w3.org/2000/svg">
<g clip-path="url(#clip0_402_872)">
<mask id="mask0_402_872" style="mask-type:luminance" maskUnits="userSpaceOnUse" x="0" y="0" width="105" height="63">
<path d="M0.272736 0H105V62.8364H0.272736V0Z" fill="white"/>
</mask>
<g mask="url(#mask0_402_872)">
<path fill-rule="evenodd" clip-rule="evenodd" d="M52.6364 0C38.6727 0 29.9455 6.98182 26.4546 20.9455C31.6909 13.9636 37.8 11.3455 44.7818 13.0909C48.7653 14.0858 51.6124 16.9775 54.7639 20.1755C59.8975 25.3867 65.8398 31.4182 78.8182 31.4182C92.7818 31.4182 101.509 24.4364 105 10.4727C99.7636 17.4545 93.6545 20.0727 86.6727 18.3273C82.6892 17.3324 79.8422 14.4407 76.6907 11.2427C71.5571 6.03151 65.6148 0 52.6364 0ZM26.4546 31.4182C12.4909 31.4182 3.76364 38.4 0.272736 52.3636C5.5091 45.3818 11.6182 42.7636 18.6 44.5091C22.5835 45.5059 25.4306 48.3956 28.5821 51.5937C33.7156 56.8048 39.6579 62.8364 52.6364 62.8364C66.6 62.8364 75.3273 55.8545 78.8182 41.8909C73.5818 48.8727 67.4727 51.4909 60.4909 49.7455C56.5074 48.7505 53.6604 45.8589 50.5089 42.6608C45.3753 37.4497 39.433 31.4182 26.4546 31.4182Z" fill="#38BDF8"/>
</g>
</g>
<defs>
<clipPath id="clip0_402_872">
<rect width="104.727" height="64" fill="white" transform="translate(0.272736)"/>
</clipPath>
</defs>
</svg>
