<svg width="65" height="64" viewBox="0 0 65 64" fill="none" xmlns="http://www.w3.org/2000/svg">
<g clip-path="url(#clip0_402_856)">
<path d="M64.5203 31.295C64.3463 20.595 58.3803 10.177 49.1503 4.69099C41.8783 0.161987 32.6923 -1.05701 24.4183 1.03299C11.9653 4.16799 2.03726 15.446 0.77526 28.3C-0.79274 40.44 5.34726 53.066 15.8403 59.292C26.1163 65.736 40.0933 65.475 50.1403 58.692C59.1973 52.814 64.8143 42.092 64.5103 31.304L64.5203 31.295ZM34.3023 59.25C19.7593 60.687 5.69526 48.365 5.30226 33.778C4.20226 21.935 12.0073 10.222 23.1543 6.30299C38.7863 0.0329871 57.9883 11.615 59.5993 28.38C62.1253 43.444 49.5853 58.78 34.3023 59.25ZM24.7323 30.38L45.7623 13.18L34.3983 30.423C31.1763 30.423 27.9543 30.424 24.7323 30.38ZM30.6453 33.56L40.3113 33.604L19.2813 50.847L30.6453 33.56Z" fill="#010101"/>
</g>
<defs>
<clipPath id="clip0_402_856">
<rect width="64" height="64" fill="white" transform="translate(0.532257)"/>
</clipPath>
</defs>
</svg>
