<svg width="65" height="64" viewBox="0 0 65 64" fill="none" xmlns="http://www.w3.org/2000/svg">
<path fill-rule="evenodd" clip-rule="evenodd" d="M11.7627 55.604L10.0267 9.37595C9.972 7.84929 11.1453 6.55729 12.6693 6.46395L43.48 4.53729L45.8333 5.33329L48.8933 4.19862L51.9813 4.00529C53.532 3.90662 54.8693 5.08395 54.9693 6.63462C54.9733 6.69462 54.9747 6.75595 54.9747 6.81729V57.1866C54.9733 58.7426 53.7107 60.0026 52.1547 60.0013C52.1133 60.0013 52.072 60 52.032 59.9986L14.4507 58.3106C12.9867 58.2453 11.8187 57.0693 11.7627 55.604Z" fill="#FF4081"/>
<path fill-rule="evenodd" clip-rule="evenodd" d="M48.8907 4.19861L43.4813 4.53461L43.2187 10.8826C43.2093 11.1146 43.3893 11.3093 43.6213 11.3199C43.7187 11.3239 43.8133 11.2946 43.8907 11.2359L46.3547 9.36528L48.4373 11.0066C48.6187 11.1506 48.884 11.1199 49.0267 10.9386C49.088 10.8599 49.12 10.7626 49.1173 10.6626L48.8933 4.19994L48.8907 4.19861ZM44.68 25.4506C43.692 26.2199 36.3107 26.7439 36.3107 25.6493C36.468 21.4693 34.5973 21.2866 33.556 21.2866C32.5707 21.2866 30.9067 21.5839 30.9067 23.8239C30.9067 26.1053 33.3373 27.3933 36.1907 28.9053C40.2427 31.0533 45.1507 33.6546 45.1507 40.1946C45.1507 46.4666 40.0547 49.9279 33.5587 49.9279C26.8533 49.9279 20.992 47.2146 21.6533 37.8093C21.9133 36.7066 30.44 36.9693 30.44 37.8093C30.3333 41.6906 31.2187 42.8319 33.4533 42.8319C35.1693 42.8319 35.948 41.8853 35.948 40.2946C35.948 37.8839 33.4173 36.4613 30.5027 34.8266C26.5573 32.6119 21.9147 30.0053 21.9147 24.0213C21.9147 18.0519 26.02 14.0706 33.3493 14.0706C40.6787 14.0706 44.68 17.9919 44.68 25.4506Z" fill="white"/>
</svg>
